:version 1.10
:name ASF
:units
  mass 1
  length 1
  angle deg
:documentation
  ASF file generated by Kaydara
:root
  axis xyz
  order  tx ty tz rx ry rz
  position 0 0 0
  orientation 0 0 0
:bonedata
  begin
    id 1
    name LeftUpLegDummy
    direction 1 -2.30186e-007 -8.31532e-007
    length 2.93387
    axis 0 0 0 xyz
  end
  begin
    id 2
    name LeftUpLeg
    direction -1.82929e-007 -1 -1.48925e-009
    length 17.3336
    axis -3.48766 0.00143442 -0.000521554 xyz
    dof rx ry rz
  end
  begin
    id 3
    name LeftLeg
    direction -1.82929e-007 -1 -5.23717e-011
    length 14.9995
    axis 3.68178 -0.00654042 -0.000282425 xyz
    dof rx ry rz
  end
  begin
    id 4
    name LeftFoot
    direction 8.31532e-007 -4.54534e-011 1
    length 6.74421
    axis 1.87234e-006 4.66016e-005 -5.96866e-006 xyz
    dof rx ry rz
  end
  begin
    id 5
    name LeftToes
    direction 0.00818058 -0.00485161 0.999955
    length 3.85048
    axis 1.06247e-005 4.65869e-005 -5.96999e-006 xyz
    dof rx ry rz
  end
  begin
    id 6
    name SpineDummy
    direction -5.8607e-008 0.943407 -0.331637
    length 5.93572
    axis 0 0 0 xyz
  end
  begin
    id 7
    name Spine
    direction -1.04988e-007 0.999988 0.00495137
    length 10.1015
    axis -0.001389 0.000121417 6.61666e-006 xyz
    dof rx ry rz
  end
  begin
    id 8
    name Spine1
    direction 0 0 0
    length 0
    axis -0.001389 0.00012144 6.56766e-006 xyz
    dof rx ry rz
  end
  begin
    id 9
    name RightShoulderDummy
    direction -0.98348 0.17941 -0.0240696
    length 3.59882
    axis -0.001389 0.00012144 6.56766e-006 xyz
  end
  begin
    id 10
    name RightShoulder
    direction -0.978693 0.204882 0.0135597
    length 2.70001
    axis 0.215806 0.000203631 -0.00679732 xyz
    dof rx ry rz
  end
  begin
    id 11
    name RightArm
    direction -1 3.85509e-006 8.31394e-007
    length 10.2459
    axis -23.2009 -0.134239 -0.964098 xyz
    dof rx ry rz
  end
  begin
    id 12
    name RightForeArm
    direction -1 3.85569e-006 8.3129e-007
    length 8.16799
    axis -9.92322 0.0658061 0.17887 xyz
    dof rx ry rz
  end
  begin
    id 13
    name RightHand
    direction -0.992843 -0.0414604 0.112003
    length 5.28593
    axis -0.00960638 0.00330669 -0.185225 xyz
    dof rx ry rz
  end
  begin
    id 14
    name LeftShoulder1Dummy
    direction 0.983523 0.179172 -0.0240748
    length 3.59866
    axis -0.001389 0.00012144 6.56766e-006 xyz
  end
  begin
    id 15
    name LeftShoulder1
    direction 0.978627 0.205195 0.0135605
    length 2.70019
    axis -0.001389 0.00012144 6.57583e-006 xyz
    dof rx ry rz
  end
  begin
    id 16
    name LeftArm
    direction 1 3.51895e-006 -8.60188e-007
    length 10.2459
    axis -23.1894 0.134785 0.967513 xyz
    dof rx ry rz
  end
  begin
    id 17
    name LeftForeArm
    direction 1 3.51921e-006 -7.32029e-007
    length 8.16799
    axis -9.91835 -0.0656957 -0.177789 xyz
    dof rx ry rz
  end
  begin
    id 18
    name LeftHand
    direction 0.992938 -0.0411636 0.11126
    length 5.32135
    axis -0.00960237 -0.00340661 0.185177 xyz
    dof rx ry rz
  end
  begin
    id 19
    name HEadDummy
    direction 1.01974e-006 0.999861 -0.016675
    length 2.99946
    axis -0.001389 0.00012144 6.56766e-006 xyz
  end
  begin
    id 20
    name HEad
    direction -0.0222689 0.980941 0.193023
    length 5.12695
    axis -0.001389 0.00012144 6.56766e-006 xyz
    dof rx ry rz
  end
  begin
    id 21
    name RightUpLegDummy
    direction -1 2.30186e-007 8.31532e-007
    length 2.93387
    axis 0 0 0 xyz
  end
  begin
    id 22
    name RightUpLeg
    direction -1.82966e-007 -1 1.56832e-007
    length 17.3336
    axis -3.4909 -0.000906625 0.00028951 xyz
    dof rx ry rz
  end
  begin
    id 23
    name RightLeg
    direction -1.82786e-007 -1 -1.80317e-007
    length 14.9995
    axis 3.68513 0.0193739 -0.131021 xyz
    dof rx ry rz
  end
  begin
    id 24
    name RightFoot
    direction 8.31721e-007 -4.63324e-011 1
    length 6.74421
    axis 4.81691e-005 -0.120479 -0.188785 xyz
    dof rx ry rz
  end
  begin
    id 25
    name RightToes
    direction 0.00124746 -0.014064 0.9999
    length 3.85082
    axis 0.000481921 0.542163 -0.142575 xyz
    dof rx ry rz
  end
:hierarchy
  begin
    root LeftUpLegDummy SpineDummy RightUpLegDummy
    LeftUpLegDummy LeftUpLeg
    LeftUpLeg LeftLeg
    LeftLeg LeftFoot
    LeftFoot LeftToes
    SpineDummy Spine
    Spine Spine1
    Spine1 RightShoulderDummy LeftShoulder1Dummy HEadDummy
    RightShoulderDummy RightShoulder
    RightShoulder RightArm
    RightArm RightForeArm
    RightForeArm RightHand
    LeftShoulder1Dummy LeftShoulder1
    LeftShoulder1 LeftArm
    LeftArm LeftForeArm
    LeftForeArm LeftHand
    HEadDummy HEad
    RightUpLegDummy RightUpLeg
    RightUpLeg RightLeg
    RightLeg RightFoot
    RightFoot RightToes
  end

:SAMPLES-PER-SECOND 30
:FULLY-SPECIFIED
:DEGREES
23
root  3.10371 34.3571 27.8752 6.54469 -2.15323 -0.580722
LeftUpLeg  -14.2022 11.6623 0.254876
LeftLeg  13.728 6.64029 1.172
LeftFoot  1.23087 -0.00323838 0.183215
LeftToes  -13.4363 2.60077e-006 -1.42232e-007
Spine  3.27517 2.82778 -5.66579
Spine1  5.55438 6.23185 -11.2691
RightShoulder  0.059715 4.0442 4.65018
RightArm  -25.0721 28.1378 51.3522
RightForeArm  61.8 70.871 30.7579
RightHand  0.672282 -2.51263 -29.5104
LeftShoulder1  0.136125 -2.33089 -10.763
LeftArm  -26.3621 11.7352 -57.5529
LeftForeArm  32.2782 -12.728 -2.27639
LeftHand  0.183336 4.48852 4.29899
HEad  3.48194 -15.2598 3.59141
RightUpLeg  -17.4425 -6.85699 -4.46787
RightLeg  13.3441 18.8781 3.1603
RightFoot  7.00991 -0.132531 2.54084
RightToes  -34.1445 -0.172287 -0.277672
24
root  3.1821 34.3564 27.9592 6.42838 -2.24774 -0.544882
LeftUpLeg  -14.0259 11.8605 0.113886
LeftLeg  13.9418 6.53554 1.17866
LeftFoot  0.889632 -0.00273758 0.15786
LeftToes  -13.2468 2.60077e-006 -1.42232e-007
Spine  3.14325 3.04216 -5.70351
Spine1  5.29145 6.73495 -11.4594
RightShoulder  0.0578561 3.95741 4.76142
RightArm  -22.3124 25.5399 52.0556
RightForeArm  63.1258 71.7225 32.4944
RightHand  0.65203 -2.60649 -27.648
LeftShoulder1  0.113623 -1.91271 -10.8901
LeftArm  -27.1678 13.942 -55.9815
LeftForeArm  34.186 -11.3145 -2.01531
LeftHand  0.180679 4.4221 4.30038
HEad  3.86283 -15.4975 3.46734
RightUpLeg  -17.2524 -6.55953 -4.689
RightLeg  13.4498 18.6394 3.15643
RightFoot  6.85387 -0.125456 2.47209
RightToes  -33.9187 -0.173059 -0.278197
25
root  3.24604 34.3603 28.032 6.33402 -2.39894 -0.551045
LeftUpLeg  -13.8066 11.9347 0.0395975
LeftLeg  13.9971 6.63695 1.20348
LeftFoot  0.662285 -0.00307588 0.146359
LeftToes  -13.0702 2.60077e-006 -1.42232e-007
Spine  3.02802 3.26094 -5.71702
Spine1  5.05499 7.23469 -11.5831
RightShoulder  0.0566041 3.92032 4.8973
RightArm  -19.5896 23.7409 52.7451
RightForeArm  63.7007 71.8508 32.7712
RightHand  0.473416 -2.08593 -25.1249
LeftShoulder1  0.0941297 -1.55014 -10.8293
LeftArm  -27.5738 15.5623 -54.6866
LeftForeArm  36.5372 -9.93653 -1.76273
LeftHand  0.192829 4.4867 4.5424
HEad  4.05314 -15.7454 3.41545
RightUpLeg  -17.0557 -6.20029 -4.83721
RightLeg  13.4203 18.424 3.11169
RightFoot  6.85058 -0.123126 2.45563
RightToes  -34.0327 -0.173807 -0.278761
26
root  3.29921 34.3654 28.0933 6.25177 -2.47343 -0.558191
LeftUpLeg  -13.6085 11.7429 -0.0108921
LeftLeg  14.0282 6.94481 1.26298
LeftFoot  0.464821 -0.00345378 0.136405
LeftToes  -12.7943 2.60077e-006 -1.42232e-007
Spine  2.94189 3.43971 -5.74091
Spine1  4.87129 7.64122 -11.7022
RightShoulder  0.0565494 3.9549 4.95669
RightArm  -16.8343 22.3806 53.2685
RightForeArm  63.939 71.5857 32.1981
RightHand  0.185609 -0.914104 -22.428
LeftShoulder1  0.0802483 -1.32963 -10.6457
LeftArm  -27.7737 16.6697 -53.5652
LeftForeArm  38.422 -8.71596 -1.54084
LeftHand  0.209575 4.5667 4.87503
HEad  4.13793 -16.1264 3.59645
RightUpLeg  -16.8598 -5.98735 -4.95751
RightLeg  13.3633 18.2761 3.06919
RightFoot  6.83453 -0.121213 2.44142
RightToes  -34.1553 -0.174587 -0.279394
27
root  3.33709 34.3701 28.1526 6.18551 -2.38673 -0.527479
LeftUpLeg  -13.3915 11.6462 -0.0847658
LeftLeg  13.9111 6.98512 1.25559
LeftFoot  0.425733 -0.00465393 0.140274
LeftToes  -12.792 2.60077e-006 -1.42232e-007
Spine  2.87228 3.56975 -5.79511
Spine1  4.72859 7.92674 -11.8383
RightShoulder  0.0551884 3.93453 5.1948
RightArm  -14.1737 21.4571 53.576
RightForeArm  63.4326 70.9203 30.8469
RightHand  0.0462955 -0.245713 -20.4354
LeftShoulder1  0.0756043 -1.4117 -10.3915
LeftArm  -28.5591 17.4545 -52.6142
LeftForeArm  39.9392 -7.86178 -1.38615
LeftHand  0.217143 4.65347 4.96299
HEad  4.21456 -16.6672 3.98857
RightUpLeg  -16.6456 -5.97604 -5.08028
RightLeg  13.2863 18.1697 3.02733
RightFoot  6.78916 -0.119093 2.4202
RightToes  -34.2787 -0.175454 -0.280123
